<svg width="52.000000" height="35.000000" viewBox="0 0 52 35" fill="none" xmlns="http://www.w3.org/2000/svg" xmlns:xlink="http://www.w3.org/1999/xlink">
	<desc>
			Created with Pixso.
	</desc>
	<path id="path" d="M44.9091 7L42.5455 7L37.8182 7L33.0909 7L33.0909 21L2.36364 21L2.36364 28L4.72727 28C4.72727 29.933 5.41957 31.5829 6.80415 32.9497C8.18874 34.3165 9.86008 35 11.8182 35C13.7763 35 15.4476 34.3165 16.8322 32.9497C18.2168 31.5829 18.9091 29.933 18.9091 28L33.0909 28C33.0909 29.933 33.7832 31.5829 35.1678 32.9497C36.5524 34.3165 38.2237 35 40.1818 35C42.1399 35 43.8113 34.3165 45.1958 32.9497C46.5804 31.5829 47.2727 29.933 47.2727 28L52 28L52 16.3334L44.9091 7ZM11.8182 31.5C10.8391 31.5 10.0035 31.1583 9.31116 30.4749C8.61887 29.7915 8.27273 28.9666 8.27273 28C8.27273 27.0334 8.61887 26.2085 9.31117 25.5251C10.0035 24.8417 10.8391 24.5 11.8182 24.5C12.7972 24.5 13.6329 24.8417 14.3252 25.5251C15.0175 26.2085 15.3636 27.0334 15.3636 28C15.3636 28.9666 15.0175 29.7915 14.3252 30.4749C13.6329 31.1583 12.7972 31.5 11.8182 31.5ZM40.1818 31.5C39.2028 31.5 38.3671 31.1583 37.6748 30.4749C36.9825 29.7915 36.6364 28.9666 36.6364 28C36.6364 27.0334 36.9825 26.2085 37.6748 25.5251C38.3671 24.8417 39.2028 24.5 40.1818 24.5C41.1609 24.5 41.9965 24.8417 42.6888 25.5251C43.3811 26.2085 43.7273 27.0334 43.7273 28C43.7273 28.9666 43.3811 29.7915 42.6888 30.4749C41.9965 31.1583 41.1609 31.5 40.1818 31.5ZM37.8182 16.3334L37.8182 10.5L43.7273 10.5L48.36 16.3334L37.8182 16.3334ZM40.1818 4.66663L30.7273 4.66663L30.7273 18.6666L4.72727 18.6666L1.34727 7L0 7L0 2.33337L28.3636 2.33337L30.7273 0L40.1818 0L40.1818 4.66663Z" fill-rule="nonzero" fill="#FFFFFF"/>
	<defs/>
</svg>
