<svg width="25.000000" height="25.000000" viewBox="0 0 25 25" fill="none" xmlns="http://www.w3.org/2000/svg" xmlns:xlink="http://www.w3.org/1999/xlink">
	<desc>
			Created with Pixso.
	</desc>
	<g clip-path="url(#clip9_320)">
		<path id="path" d="M12.5 1C6.15479 1 1 6.15475 1 12.5C1 18.8452 6.15479 24 12.5 24C18.8452 24 24 18.8452 24 12.5C24 6.15475 18.8452 1 12.5 1ZM12.5 2C18.3047 2 23 6.69522 23 12.5C23 18.3048 18.3047 23 12.5 23C6.69531 23 2 18.3048 2 12.5C2 6.69522 6.69531 2 12.5 2ZM16.4951 7.99316C16.3579 7.9964 16.2417 8.04752 16.1465 8.14648L12.5 11.793L8.85352 8.14648C8.75537 8.04556 8.63599 7.99512 8.49512 7.99512C8.27075 7.99518 8.11646 8.09915 8.03198 8.30701C7.94751 8.51486 7.9856 8.69705 8.14648 8.85352L11.793 12.5L8.14648 16.1465C8.04541 16.2435 7.99414 16.362 7.99268 16.5021C7.99146 16.6422 8.04028 16.7617 8.13916 16.8608C8.23828 16.9598 8.35791 17.0086 8.4978 17.0072C8.63794 17.0058 8.75659 16.9546 8.85352 16.8535L12.5 13.207L16.1465 16.8535C16.2434 16.9546 16.3621 17.0058 16.5022 17.0072C16.6421 17.0086 16.7617 16.9598 16.8608 16.8608C16.9597 16.7617 17.0085 16.6422 17.0073 16.5021C17.0059 16.362 16.9546 16.2435 16.8535 16.1465L13.207 12.5L16.8535 8.85352C17.0178 8.6955 17.0562 8.51123 16.9685 8.30078C16.8809 8.09033 16.7231 7.98779 16.4951 7.99316Z" fill-rule="nonzero" fill="#000000"/>
	</g>
	<defs>
		<clipPath id="clip9_320">
			<rect id="icons8-cancel.svg" width="25.000000" height="25.000000" fill="white"/>
		</clipPath>
	</defs>
</svg>
