<svg width="30.000000" height="30.000000" viewBox="0 0 30 30" fill="none" xmlns="http://www.w3.org/2000/svg" xmlns:xlink="http://www.w3.org/1999/xlink">
	<desc>
			Created with Pixso.
	</desc>
	<g clip-path="url(#clip2_7)">
		<path id="path" d="M18.25 26.625C17.875 26.9075 17.4763 27.205 17.1375 27.5L20 27.5C20.0821 27.5 20.1633 27.508 20.2438 27.524C20.3243 27.54 20.4025 27.5638 20.4783 27.5952C20.5542 27.6266 20.6262 27.6651 20.6945 27.7107C20.7627 27.7563 20.8259 27.8081 20.8839 27.8661C20.9419 27.9242 20.9937 27.9873 21.0393 28.0555C21.0849 28.1238 21.1234 28.1958 21.1548 28.2716C21.1863 28.3475 21.21 28.4256 21.226 28.5061C21.242 28.5866 21.25 28.6679 21.25 28.75C21.25 28.8321 21.242 28.9134 21.226 28.9939C21.21 29.0744 21.1863 29.1525 21.1548 29.2284C21.1234 29.3042 21.0849 29.3762 21.0393 29.4445C20.9937 29.5127 20.9419 29.5758 20.8839 29.6339C20.8259 29.6919 20.7627 29.7437 20.6945 29.7893C20.6262 29.8349 20.5542 29.8734 20.4783 29.9048C20.4025 29.9362 20.3243 29.96 20.2438 29.976C20.1633 29.992 20.0821 30 20 30L15 30C14.9179 30 14.8366 29.992 14.7561 29.976C14.6757 29.96 14.5975 29.9362 14.5217 29.9048C14.4458 29.8734 14.3738 29.8349 14.3055 29.7893C14.2373 29.7437 14.1741 29.6919 14.1161 29.6339C14.058 29.5758 14.0062 29.5127 13.9606 29.4445C13.915 29.3762 13.8765 29.3042 13.8452 29.2284C13.8137 29.1525 13.79 29.0744 13.774 28.9939C13.758 28.9134 13.75 28.8321 13.75 28.75C13.75 26.875 15.3438 25.68 16.75 24.625C17.6875 23.9225 18.75 23.125 18.75 22.5C18.75 22.4179 18.742 22.3366 18.726 22.2561C18.71 22.1756 18.6863 22.0975 18.6548 22.0216C18.6234 21.9458 18.5849 21.8738 18.5393 21.8055C18.4937 21.7373 18.4419 21.6742 18.3839 21.6161C18.3259 21.5581 18.2627 21.5063 18.1945 21.4607C18.1262 21.4151 18.0542 21.3766 17.9783 21.3452C17.9025 21.3138 17.8243 21.29 17.7438 21.274C17.6633 21.258 17.5821 21.25 17.5 21.25C17.4179 21.25 17.3366 21.258 17.2561 21.274C17.1757 21.29 17.0975 21.3138 17.0217 21.3452C16.9458 21.3766 16.8738 21.4151 16.8055 21.4607C16.7373 21.5063 16.6741 21.5581 16.6161 21.6161C16.558 21.6742 16.5063 21.7373 16.4606 21.8055C16.415 21.8738 16.3765 21.9458 16.3452 22.0216C16.3137 22.0975 16.29 22.1756 16.274 22.2561C16.258 22.3366 16.25 22.4179 16.25 22.5C16.25 22.5821 16.242 22.6634 16.226 22.7439C16.21 22.8244 16.1863 22.9025 16.1548 22.9784C16.1234 23.0542 16.0849 23.1262 16.0393 23.1945C15.9937 23.2627 15.9419 23.3258 15.8839 23.3839C15.8259 23.4419 15.7627 23.4937 15.6945 23.5393C15.6262 23.5849 15.5542 23.6234 15.4783 23.6548C15.4025 23.6862 15.3243 23.71 15.2438 23.726C15.1633 23.742 15.0821 23.75 15 23.75C14.9179 23.75 14.8366 23.742 14.7561 23.726C14.6757 23.71 14.5975 23.6862 14.5217 23.6548C14.4458 23.6234 14.3738 23.5849 14.3055 23.5393C14.2373 23.4937 14.1741 23.4419 14.1161 23.3839C14.058 23.3258 14.0062 23.2627 13.9606 23.1945C13.915 23.1262 13.8765 23.0542 13.8452 22.9784C13.8137 22.9025 13.79 22.8244 13.774 22.7439C13.758 22.6634 13.75 22.5821 13.75 22.5C13.75 22.3772 13.756 22.2547 13.7681 22.1324C13.7801 22.0102 13.7981 21.8889 13.822 21.7684C13.846 21.6479 13.8758 21.529 13.9115 21.4114C13.9471 21.2939 13.9885 21.1784 14.0355 21.0649C14.0825 20.9515 14.1349 20.8406 14.1928 20.7323C14.2507 20.6239 14.3137 20.5187 14.382 20.4166C14.4502 20.3145 14.5233 20.216 14.6012 20.121C14.6791 20.0261 14.7615 19.9352 14.8483 19.8484C14.9352 19.7615 15.0261 19.6791 15.121 19.6012C15.2159 19.5233 15.3145 19.4502 15.4166 19.382C15.5187 19.3138 15.624 19.2507 15.7322 19.1928C15.8406 19.1349 15.9515 19.0825 16.0649 19.0355C16.1784 18.9885 16.2939 18.9471 16.4114 18.9115C16.5289 18.8758 16.6479 18.846 16.7684 18.8221C16.8889 18.7981 17.0102 18.7801 17.1324 18.7681C17.2546 18.756 17.3772 18.75 17.5 18.75C17.6228 18.75 17.7454 18.756 17.8676 18.7681C17.9898 18.7801 18.1111 18.7981 18.2316 18.8221C18.3521 18.846 18.471 18.8758 18.5886 18.9115C18.7061 18.9471 18.8216 18.9885 18.9351 19.0355C19.0485 19.0825 19.1594 19.1349 19.2677 19.1928C19.376 19.2507 19.4813 19.3138 19.5834 19.382C19.6855 19.4502 19.7841 19.5233 19.879 19.6012C19.9739 19.6791 20.0648 19.7615 20.1516 19.8484C20.2385 19.9352 20.3209 20.0261 20.3988 20.121C20.4767 20.216 20.5497 20.3145 20.618 20.4166C20.6862 20.5187 20.7493 20.6239 20.8072 20.7323C20.8651 20.8406 20.9175 20.9515 20.9645 21.0649C21.0115 21.1784 21.0529 21.2939 21.0885 21.4114C21.1241 21.529 21.154 21.6479 21.1779 21.7684C21.2019 21.8889 21.2199 22.0102 21.2319 22.1324C21.244 22.2547 21.25 22.3772 21.25 22.5C21.25 24.375 19.6562 25.57 18.25 26.625ZM28.75 18.75C28.6679 18.75 28.5866 18.758 28.5061 18.774C28.4257 18.79 28.3475 18.8138 28.2717 18.8452C28.1958 18.8766 28.1238 18.9151 28.0555 18.9607C27.9873 19.0063 27.9241 19.0581 27.8661 19.1161C27.808 19.1742 27.7562 19.2373 27.7106 19.3055C27.665 19.3738 27.6265 19.4458 27.5952 19.5216C27.5637 19.5975 27.54 19.6756 27.524 19.7561C27.508 19.8366 27.5 19.9179 27.5 20L27.5 23.75L26.25 23.75C26.1679 23.75 26.0866 23.742 26.0061 23.726C25.9257 23.71 25.8475 23.6862 25.7717 23.6548C25.6958 23.6234 25.6238 23.5849 25.5555 23.5393C25.4873 23.4937 25.4241 23.4419 25.3661 23.3839C25.308 23.3258 25.2562 23.2627 25.2106 23.1945C25.165 23.1262 25.1265 23.0542 25.0952 22.9784C25.0637 22.9025 25.04 22.8244 25.024 22.7439C25.008 22.6634 25 22.5821 25 22.5L25 20C25 19.9179 24.992 19.8366 24.976 19.7561C24.96 19.6756 24.9362 19.5975 24.9048 19.5216C24.8734 19.4458 24.8349 19.3738 24.7893 19.3055C24.7437 19.2373 24.6919 19.1742 24.6339 19.1161C24.5759 19.0581 24.5127 19.0063 24.4445 18.9607C24.3762 18.9151 24.3042 18.8766 24.2283 18.8452C24.1525 18.8138 24.0743 18.79 23.9938 18.774C23.9133 18.758 23.8321 18.75 23.75 18.75C23.6679 18.75 23.5866 18.758 23.5061 18.774C23.4257 18.79 23.3475 18.8138 23.2717 18.8452C23.1958 18.8766 23.1238 18.9151 23.0555 18.9607C22.9873 19.0063 22.9241 19.0581 22.8661 19.1161C22.808 19.1742 22.7562 19.2373 22.7106 19.3055C22.665 19.3738 22.6265 19.4458 22.5952 19.5216C22.5637 19.5975 22.54 19.6756 22.524 19.7561C22.508 19.8366 22.5 19.9179 22.5 20L22.5 22.5C22.5 22.6228 22.506 22.7453 22.5181 22.8676C22.5301 22.9898 22.5481 23.1111 22.572 23.2316C22.596 23.3521 22.6258 23.471 22.6614 23.5886C22.6971 23.7061 22.7385 23.8216 22.7855 23.9351C22.8325 24.0485 22.8849 24.1594 22.9428 24.2677C23.0007 24.376 23.0637 24.4813 23.132 24.5834C23.2002 24.6855 23.2733 24.784 23.3512 24.879C23.4291 24.9739 23.5115 25.0648 23.5983 25.1516C23.6852 25.2385 23.7761 25.3209 23.871 25.3988C23.9659 25.4767 24.0645 25.5498 24.1666 25.618C24.2687 25.6862 24.374 25.7493 24.4822 25.8072C24.5906 25.8651 24.7015 25.9175 24.8149 25.9645C24.9284 26.0115 25.0439 26.0529 25.1614 26.0885C25.2789 26.1242 25.3979 26.154 25.5184 26.1779C25.6389 26.2019 25.7602 26.2199 25.8824 26.2319C26.0046 26.244 26.1272 26.25 26.25 26.25L27.5 26.25L27.5 28.75C27.5 28.8321 27.508 28.9134 27.524 28.9939C27.54 29.0744 27.5637 29.1525 27.5952 29.2284C27.6265 29.3042 27.665 29.3762 27.7106 29.4445C27.7562 29.5127 27.808 29.5758 27.8661 29.6339C27.9241 29.6919 27.9873 29.7437 28.0555 29.7893C28.1238 29.8349 28.1958 29.8734 28.2716 29.9048C28.3475 29.9362 28.4256 29.96 28.5061 29.976C28.5866 29.992 28.6679 30 28.75 30C28.8321 30 28.9133 29.992 28.9938 29.976C29.0743 29.96 29.1525 29.9362 29.2283 29.9048C29.3042 29.8734 29.3762 29.8349 29.4445 29.7893C29.5127 29.7437 29.5759 29.6919 29.6339 29.6339C29.6919 29.5758 29.7437 29.5127 29.7893 29.4445C29.8349 29.3762 29.8734 29.3042 29.9048 29.2284C29.9363 29.1525 29.96 29.0744 29.976 28.9939C29.992 28.9134 30 28.8321 30 28.75L30 20C30 19.9179 29.992 19.8366 29.976 19.7561C29.96 19.6756 29.9363 19.5975 29.9048 19.5216C29.8734 19.4458 29.8349 19.3738 29.7893 19.3055C29.7437 19.2373 29.6919 19.1742 29.6339 19.1161C29.5759 19.0581 29.5127 19.0063 29.4445 18.9607C29.3762 18.9151 29.3042 18.8766 29.2283 18.8452C29.1525 18.8138 29.0743 18.79 28.9938 18.774C28.9133 18.758 28.8321 18.75 28.75 18.75ZM16.25 15L16.25 8.75C16.25 8.66791 16.242 8.58664 16.226 8.50613C16.21 8.42563 16.1863 8.34747 16.1548 8.27164C16.1234 8.1958 16.0849 8.12378 16.0393 8.05554C15.9937 7.9873 15.9419 7.92416 15.8839 7.86612C15.8259 7.80807 15.7627 7.75626 15.6945 7.71066C15.6262 7.66507 15.5542 7.62656 15.4783 7.59515C15.4025 7.56375 15.3243 7.54004 15.2438 7.52402C15.1633 7.508 15.0821 7.5 15 7.5C14.9179 7.5 14.8366 7.508 14.7561 7.52402C14.6757 7.54004 14.5975 7.56375 14.5217 7.59515C14.4458 7.62656 14.3738 7.66507 14.3055 7.71066C14.2373 7.75626 14.1741 7.80807 14.1161 7.86612C14.058 7.92416 14.0062 7.9873 13.9606 8.05554C13.915 8.12378 13.8765 8.1958 13.8452 8.27164C13.8137 8.34747 13.79 8.42563 13.774 8.50613C13.758 8.58664 13.75 8.66791 13.75 8.75L13.75 13.75L10 13.75C9.91791 13.75 9.83661 13.758 9.7561 13.774C9.67566 13.79 9.59747 13.8138 9.52167 13.8452C9.4458 13.8766 9.37378 13.9151 9.30554 13.9607C9.2373 14.0063 9.17413 14.0581 9.11609 14.1161C9.05811 14.1742 9.00629 14.2373 8.96063 14.3055C8.91504 14.3738 8.87653 14.4458 8.84515 14.5216C8.81372 14.5975 8.79004 14.6756 8.77399 14.7561C8.758 14.8366 8.75 14.9179 8.75 15C8.75 15.0821 8.758 15.1634 8.77399 15.2439C8.79004 15.3244 8.81372 15.4025 8.84515 15.4784C8.87653 15.5542 8.91504 15.6262 8.96063 15.6945C9.00629 15.7627 9.05811 15.8258 9.11609 15.8839C9.17413 15.9419 9.2373 15.9937 9.30554 16.0393C9.37378 16.0849 9.4458 16.1234 9.52167 16.1548C9.59747 16.1862 9.67566 16.21 9.7561 16.226C9.83661 16.242 9.91791 16.25 10 16.25L15 16.25C15.0821 16.25 15.1633 16.242 15.2438 16.226C15.3243 16.21 15.4025 16.1862 15.4783 16.1548C15.5542 16.1234 15.6262 16.0849 15.6945 16.0393C15.7627 15.9937 15.8259 15.9419 15.8839 15.8839C15.9419 15.8258 15.9937 15.7627 16.0393 15.6945C16.0849 15.6262 16.1234 15.5542 16.1548 15.4784C16.1863 15.4025 16.21 15.3244 16.226 15.2439C16.242 15.1634 16.25 15.0821 16.25 15ZM28.75 2.5C28.6679 2.5 28.5866 2.508 28.5061 2.52402C28.4257 2.54004 28.3475 2.56375 28.2717 2.59515C28.1958 2.62656 28.1238 2.66507 28.0555 2.71066C27.9873 2.75626 27.9241 2.80807 27.8661 2.86612C27.808 2.92416 27.7562 2.9873 27.7106 3.05554C27.665 3.12378 27.6265 3.19583 27.5952 3.27164C27.5637 3.34747 27.54 3.42563 27.524 3.50613C27.508 3.58664 27.5 3.66794 27.5 3.75L27.5 6.7175C27.3379 6.47287 27.1688 6.23318 26.9926 5.9985C26.8164 5.76379 26.6335 5.53445 26.4439 5.31049C26.2543 5.08652 26.0582 4.86829 25.8558 4.65582C25.6534 4.44336 25.4449 4.237 25.2303 4.03677C25.0158 3.83655 24.7955 3.64279 24.5696 3.45547C24.3437 3.26819 24.1125 3.08768 23.876 2.91394C23.6395 2.7402 23.3981 2.57355 23.1518 2.414C22.9055 2.25443 22.6547 2.10223 22.3995 1.95737C22.1442 1.81253 21.885 1.67529 21.6217 1.54565C21.3584 1.41605 21.0916 1.29425 20.8211 1.18027C20.5507 1.06631 20.2772 0.960358 20.0005 0.862457C19.7239 0.764557 19.4446 0.674835 19.1627 0.593323C18.8807 0.51181 18.5967 0.438629 18.3105 0.373779C18.0243 0.308929 17.7364 0.252533 17.4469 0.20459C17.1573 0.156616 16.8667 0.117218 16.5748 0.0863037C16.283 0.0554199 15.9905 0.0331116 15.6974 0.0194092C15.4042 0.00567627 15.111 0.000549316 14.8175 0.00405884C14.524 0.00753784 14.231 0.0196228 13.9382 0.0403442C13.6455 0.0610352 13.3536 0.090271 13.0626 0.128113C12.7716 0.165924 12.4819 0.21225 12.1936 0.26709C11.9053 0.321899 11.6189 0.385132 11.3343 0.456787C11.0497 0.528412 10.7675 0.608337 10.4875 0.696533C10.2076 0.78476 9.9306 0.881073 9.65637 0.985565C9.38214 1.09003 9.11121 1.20242 8.84351 1.32281C8.57587 1.44318 8.31201 1.57129 8.05188 1.70715C7.79175 1.84299 7.53583 1.98636 7.28412 2.13724C7.03241 2.28812 6.78534 2.44626 6.54291 2.61163C6.30048 2.77701 6.06311 2.94934 5.83081 3.12866C5.59851 3.30798 5.37164 3.49393 5.15027 3.68655C4.92883 3.87918 4.71326 4.07812 4.50354 4.28342C4.29382 4.48871 4.09033 4.69995 3.89301 4.91718C3.69568 5.1344 3.50488 5.35721 3.32062 5.58563C3.13641 5.81406 2.95898 6.04767 2.78845 6.2865C2.61792 6.52533 2.45459 6.76895 2.29834 7.0174C2.14209 7.26581 1.99329 7.51859 1.85187 7.77576C1.71051 8.0329 1.57678 8.29398 1.45068 8.55899C1.32458 8.82401 1.20642 9.09247 1.09613 9.36441C0.985779 9.63635 0.883545 9.91129 0.789368 10.1892C0.69519 10.4672 0.609253 10.7477 0.531494 11.0306C0.453796 11.3136 0.38446 11.5986 0.323486 11.8857C0.262451 12.1728 0.209961 12.4614 0.165894 12.7515C0.121887 13.0416 0.0863647 13.3328 0.0593872 13.6251C0.0324097 13.9173 0.0140991 14.21 0.00427246 14.5033C-0.00549316 14.7966 -0.00665283 15.09 0.000793457 15.3833C0.00823975 15.6767 0.024292 15.9696 0.0488892 16.2621C0.0735474 16.5545 0.10675 16.8459 0.148438 17.1364C0.190186 17.4269 0.240417 17.7159 0.299133 18.0034C0.357849 18.291 0.424927 18.5765 0.500366 18.8601C0.575806 19.1437 0.659546 19.4249 0.751526 19.7036C0.843445 19.9822 0.943542 20.258 1.0517 20.5308C1.15985 20.8036 1.27588 21.073 1.39984 21.339C1.5238 21.605 1.65546 21.8672 1.7948 22.1254C1.93414 22.3837 2.08093 22.6377 2.23517 22.8873C2.38947 23.137 2.5509 23.3819 2.71948 23.6221C2.88812 23.8622 3.06366 24.0973 3.24609 24.3271C3.42853 24.557 3.61749 24.7814 3.81311 25.0002C4.00867 25.2189 4.21051 25.4318 4.41858 25.6387C4.62671 25.8457 4.84064 26.0463 5.06049 26.2407C5.2804 26.4351 5.50574 26.6229 5.73663 26.804C5.96747 26.9852 6.20349 27.1594 6.44458 27.3267C6.68567 27.494 6.93152 27.6541 7.18201 27.807C7.4325 27.9598 7.68726 28.1053 7.94629 28.2432C8.20532 28.3811 8.4682 28.5113 8.73486 28.6338C9.00153 28.7563 9.27161 28.8708 9.54498 28.9775C9.69141 29.034 9.84308 29.0623 10 29.0625C10.0724 29.0626 10.1442 29.0565 10.2155 29.0441C10.2868 29.0317 10.3566 29.0133 10.4247 28.9889C10.4927 28.9644 10.5582 28.9342 10.6212 28.8984C10.684 28.8625 10.7433 28.8215 10.7991 28.7754C10.8548 28.7292 10.9062 28.6786 10.9531 28.6235C11.0001 28.5685 11.0419 28.5097 11.0787 28.4474C11.1155 28.385 11.1465 28.32 11.172 28.2523C11.1975 28.1845 11.2169 28.1151 11.2303 28.0439C11.2437 27.9728 11.2509 27.9011 11.2518 27.8287C11.2527 27.7563 11.2474 27.6844 11.2359 27.613C11.2244 27.5415 11.2067 27.4716 11.183 27.4032C11.1593 27.3348 11.1299 27.269 11.0948 27.2057C11.0596 27.1425 11.0193 27.0827 10.9738 27.0264C10.9283 26.9702 10.8783 26.9182 10.8237 26.8706C10.7692 26.8231 10.711 26.7805 10.649 26.743C10.5872 26.7056 10.5225 26.6737 10.455 26.6475C10.2229 26.5578 9.99371 26.4612 9.7674 26.3578C9.54108 26.2543 9.31805 26.1442 9.09833 26.0275C8.8786 25.9107 8.66254 25.7875 8.45013 25.6579C8.23779 25.5282 8.02942 25.3924 7.8252 25.2503C7.62091 25.1082 7.42108 24.9601 7.22565 24.8061C7.03021 24.6521 6.83954 24.4924 6.65369 24.327C6.46777 24.1615 6.28699 23.9907 6.11133 23.8145C5.93561 23.6383 5.76532 23.457 5.60046 23.2706C5.43561 23.0843 5.27649 22.8931 5.12305 22.6973C4.96954 22.5014 4.82208 22.3011 4.6806 22.0964C4.53912 21.8917 4.40387 21.683 4.27484 21.4702C4.14581 21.2574 4.02325 21.041 3.90717 20.821C3.79108 20.6009 3.68164 20.3775 3.57892 20.1509C3.47614 19.9243 3.38025 19.6948 3.2912 19.4625C3.20215 19.2301 3.12006 18.9953 3.04504 18.7581C2.97003 18.5208 2.9021 18.2816 2.84137 18.0403C2.78064 17.799 2.72717 17.5561 2.68091 17.3116C2.6347 17.0671 2.59576 16.8214 2.56421 16.5746C2.53265 16.3278 2.50848 16.0802 2.4917 15.832C2.47491 15.5837 2.46552 15.3352 2.46356 15.0864C2.46167 14.8375 2.4671 14.5889 2.48004 14.3404C2.49292 14.0919 2.51324 13.844 2.54095 13.5967C2.56866 13.3495 2.6037 13.1032 2.64612 12.858C2.68854 12.6129 2.73822 12.3691 2.79523 12.1269C2.85217 11.8847 2.91632 11.6444 2.98767 11.406C3.05896 11.1676 3.13733 10.9316 3.22278 10.6979C3.30817 10.4642 3.40045 10.2332 3.49969 10.005C3.59888 9.77682 3.70483 9.55179 3.81744 9.32993C3.93011 9.10806 4.04926 8.88974 4.17499 8.67499C4.30066 8.46024 4.43262 8.24942 4.57092 8.04254C4.70917 7.83569 4.85352 7.63312 5.00385 7.43488C5.15424 7.2366 5.31036 7.04303 5.47229 6.8541C5.63422 6.66516 5.80164 6.48123 5.97455 6.30231C6.14746 6.12338 6.32556 5.94977 6.50885 5.78146C6.69214 5.61319 6.88031 5.4505 7.0733 5.29346C7.2663 5.13638 7.46381 4.98523 7.66583 4.83997C7.86786 4.6947 8.07404 4.5556 8.28436 4.42264C8.49469 4.2897 8.7088 4.16315 8.9267 4.04297C9.14459 3.92282 9.36584 3.80923 9.59052 3.7023C9.81519 3.59534 10.0428 3.49521 10.2735 3.40186C10.5042 3.3085 10.7374 3.22211 10.9732 3.14267C11.209 3.06326 11.447 2.99094 11.6871 2.92572C11.9272 2.8605 12.1691 2.80252 12.4127 2.75174C12.6563 2.70096 12.9012 2.6575 13.1473 2.62137C13.3936 2.58521 13.6406 2.55646 13.8885 2.53506C14.1364 2.51367 14.3848 2.49969 14.6335 2.4931C14.8822 2.48654 15.1309 2.48743 15.3796 2.4957C15.6283 2.504 15.8765 2.51968 16.1243 2.54282C16.372 2.56592 16.6189 2.59641 16.8648 2.63425C17.1107 2.67212 17.3553 2.71725 17.5986 2.76971C17.8418 2.8222 18.0833 2.88187 18.3229 2.94873C18.5626 3.01562 18.8 3.0896 19.0353 3.17065C19.2706 3.25171 19.5032 3.33972 19.7332 3.43466C19.9632 3.52963 20.1901 3.63135 20.4141 3.73987C20.638 3.84836 20.8585 3.96344 21.0755 4.08511C21.2926 4.20679 21.5058 4.33484 21.7152 4.46924C21.9246 4.60364 22.1298 4.74417 22.3308 4.89084C22.5319 5.03751 22.7283 5.19003 22.9202 5.34842C23.1121 5.50684 23.2991 5.67081 23.4812 5.84036C23.6633 6.00992 23.8402 6.18475 24.0119 6.3649C24.1835 6.54501 24.3497 6.7301 24.5103 6.92014C24.6709 7.1102 24.8257 7.30487 24.9747 7.50415C25.1237 7.70346 25.2666 7.90701 25.4034 8.11484C25.5403 8.32266 25.6708 8.53439 25.795 8.75L22.5 8.75C22.4179 8.75 22.3366 8.758 22.2561 8.77402C22.1757 8.79004 22.0975 8.81375 22.0217 8.84515C21.9458 8.87656 21.8738 8.91507 21.8055 8.96066C21.7373 9.00626 21.6741 9.05807 21.6161 9.11612C21.558 9.17416 21.5062 9.2373 21.4606 9.30554C21.415 9.37378 21.3765 9.4458 21.3452 9.52164C21.3137 9.59747 21.29 9.67563 21.274 9.75613C21.258 9.83664 21.25 9.91794 21.25 10C21.25 10.0821 21.258 10.1634 21.274 10.2439C21.29 10.3244 21.3137 10.4025 21.3452 10.4784C21.3765 10.5542 21.415 10.6262 21.4606 10.6945C21.5062 10.7627 21.5581 10.8258 21.6161 10.8839C21.6741 10.9419 21.7373 10.9937 21.8055 11.0393C21.8738 11.0849 21.9458 11.1234 22.0217 11.1548C22.0975 11.1862 22.1757 11.21 22.2561 11.226C22.3366 11.242 22.4179 11.25 22.5 11.25L26.25 11.25C26.3728 11.25 26.4954 11.244 26.6176 11.2319C26.7398 11.2199 26.8611 11.2019 26.9816 11.1779C27.1021 11.154 27.221 11.1242 27.3386 11.0885C27.4561 11.0529 27.5716 11.0115 27.6851 10.9645C27.7985 10.9175 27.9094 10.8651 28.0177 10.8072C28.126 10.7493 28.2313 10.6862 28.3334 10.618C28.4355 10.5498 28.5341 10.4767 28.629 10.3988C28.7239 10.3209 28.8148 10.2385 28.9017 10.1516C28.9885 10.0648 29.0709 9.97391 29.1488 9.87897C29.2267 9.78403 29.2997 9.68552 29.368 9.58337C29.4362 9.48126 29.4993 9.37604 29.5572 9.26773C29.6151 9.15942 29.6675 9.04852 29.7145 8.93506C29.7615 8.82159 29.8029 8.70609 29.8385 8.58856C29.8741 8.47104 29.904 8.35205 29.9279 8.2316C29.9519 8.11115 29.9699 7.98978 29.9819 7.86755C29.994 7.74533 30 7.6228 30 7.5L30 3.75C30 3.66794 29.992 3.58664 29.976 3.50613C29.96 3.42563 29.9363 3.34747 29.9048 3.27164C29.8734 3.1958 29.8349 3.12378 29.7893 3.05554C29.7437 2.9873 29.6919 2.92416 29.6339 2.86612C29.5759 2.80807 29.5127 2.75626 29.4445 2.71066C29.3762 2.66507 29.3042 2.62656 29.2283 2.59515C29.1525 2.56375 29.0743 2.54004 28.9938 2.52402C28.9133 2.508 28.8321 2.5 28.75 2.5Z" fill-rule="evenodd" fill="#FEC400"/>
	</g>
	<defs>
		<clipPath id="clip2_7">
			<rect id="time-twenty-four-svgrepo-com.svg" width="30.000000" height="30.000000" fill="white"/>
		</clipPath>
	</defs>
</svg>
