<svg width="160.000000" height="67.192932" viewBox="0 0 160 67.1929" fill="none" xmlns="http://www.w3.org/2000/svg" xmlns:xlink="http://www.w3.org/1999/xlink">
	<desc>
			Created with Pixso.
	</desc>
	<g clip-path="url(#clip9_1)">
		<rect id="rect" width="160.000000" height="67.192940" fill="#FEC400"/>
		<path id="path" d="M75.4545 28.1961L75.4545 26.5027L87.7465 26.5027L87.7465 28.1961L82.5928 28.1961L82.5928 42.2665L80.6082 42.2665L80.6082 28.1961L75.4545 28.1961ZM90.8094 42.2665L90.8094 26.5027L100.701 26.5027L100.701 28.1961L92.7941 28.1961L92.7941 33.5226L100.188 33.5226L100.188 35.2159L92.7941 35.2159L92.7941 40.5732L100.829 40.5732L100.829 42.2665L90.8094 42.2665ZM105.238 26.5027L109.463 33.0608L109.591 33.0608L113.816 26.5027L116.153 26.5027L111 34.3847L116.153 42.2665L113.816 42.2665L109.591 35.8317L109.463 35.8317L105.238 42.2665L102.901 42.2665L108.183 34.3847L102.901 26.5027L105.238 26.5027ZM118.737 42.2665L118.737 26.5027L120.721 26.5027L120.721 33.5226L129.46 33.5226L129.46 26.5027L131.445 26.5027L131.445 42.2665L129.46 42.2665L129.46 35.2159L120.721 35.2159L120.721 42.2665L118.737 42.2665ZM149.246 34.3847C149.246 36.0473 148.934 37.484 148.31 38.695C147.686 39.9061 146.829 40.84 145.741 41.4969C144.652 42.1536 143.41 42.4821 142.012 42.4821C140.614 42.4821 139.371 42.1536 138.283 41.4969C137.194 40.84 136.338 39.9061 135.714 38.695C135.09 37.484 134.777 36.0473 134.777 34.3847C134.777 32.7221 135.09 31.2852 135.714 30.0743C136.338 28.8633 137.194 27.9293 138.283 27.2726C139.371 26.6157 140.614 26.2873 142.012 26.2873C143.41 26.2873 144.652 26.6157 145.741 27.2726C146.829 27.9293 147.686 28.8633 148.31 30.0743C148.934 31.2852 149.246 32.7221 149.246 34.3847ZM147.325 34.3847C147.325 33.0197 147.088 31.8677 146.613 30.9287C146.144 29.9896 145.506 29.2789 144.701 28.7965C143.901 28.3141 143.004 28.073 142.012 28.073C141.02 28.073 140.121 28.3141 139.315 28.7965C138.515 29.2789 137.877 29.9896 137.403 30.9287C136.933 31.8677 136.699 33.0197 136.699 34.3847C136.699 35.7496 136.933 36.9016 137.403 37.8407C137.877 38.7798 138.515 39.4904 139.315 39.9727C140.121 40.4551 141.02 40.6963 142.012 40.6963C143.004 40.6963 143.901 40.4551 144.701 39.9727C145.506 39.4904 146.144 38.7798 146.613 37.8407C147.088 36.9016 147.325 35.7496 147.325 34.3847Z" fill-rule="nonzero" fill="#000000"/>
		<path id="path" d="M50.5796 27.7194L47.3152 30.9945L42.8348 27.6454L39.3527 30.9945L35.1796 27.0545" stroke="#000000" stroke-width="1.150000" stroke-linejoin="round" stroke-linecap="round"/>
		<path id="path" d="M12.406 46.5455L26.8075 23.6808L31.7745 31.7579" stroke="#000000" stroke-width="1.150000" stroke-linejoin="round" stroke-linecap="round"/>
		<path id="path" d="M22.9031 46.5455L42.6684 15.1726L62.4464 46.5455" stroke="#000000" stroke-width="1.150000" stroke-linejoin="round" stroke-linecap="round"/>
		<path id="path" d="M6.76056 46.5455L31.7744 46.5455" stroke="#000000" stroke-width="1.150000" stroke-linejoin="round" stroke-linecap="round"/>
		<path id="path" d="M36.8182 46.5455L66.4789 46.5455" stroke="#000000" stroke-width="1.150000" stroke-linejoin="round" stroke-linecap="round"/>
	</g>
	<defs>
		<clipPath id="clip9_1">
			<rect id="Group 2.svg" width="160.000000" height="67.192940" fill="white"/>
		</clipPath>
	</defs>
</svg>
