<svg width="30.000000" height="30.000000" viewBox="0 0 30 30" fill="none" xmlns="http://www.w3.org/2000/svg" xmlns:xlink="http://www.w3.org/1999/xlink">
	<desc>
			Created with Pixso.
	</desc>
	<g clip-path="url(#clip2_10)">
		<path id="path" d="M13.3828 29.1328C14.1797 30.0234 15.5156 30.0234 16.3125 29.1093C16.3828 29.039 16.5234 28.875 16.7344 28.6406C17.0859 28.2656 17.4609 27.8203 17.8594 27.3281C19.0312 25.9453 20.2031 24.4453 21.3047 22.9218C22.4062 21.3984 23.3672 19.8984 24.1406 18.4922C25.5938 15.8906 26.3906 13.6406 26.3906 11.789C26.4141 5.27341 21.2344 -3.05176e-05 14.8359 -3.05176e-05C8.4375 -3.05176e-05 3.28125 5.27341 3.28125 11.789C3.28125 13.6406 4.07812 15.914 5.53125 18.5156C6.32812 19.9218 7.28906 21.4218 8.36719 22.9453C9.46875 24.4687 10.6406 25.9687 11.8125 27.3515C12.2344 27.8437 12.6094 28.289 12.9375 28.664C13.1719 28.8984 13.3125 29.0625 13.3828 29.1328ZM14.4141 28.1718C14.3438 28.1015 14.2031 27.9375 13.9922 27.7031C13.6641 27.3281 13.2891 26.8828 12.8906 26.414C11.7422 25.0547 10.5938 23.5781 9.51562 22.1015C8.4375 20.6015 7.5 19.1718 6.75 17.8125C5.41406 15.3984 4.6875 13.3359 4.6875 11.789C4.6875 6.07028 9.23438 1.42966 14.8359 1.42966C20.4375 1.42966 25.0078 6.07028 25.0078 11.789C25.0078 13.3359 24.2812 15.3984 22.9453 17.789C22.1953 19.1484 21.2578 20.6015 20.1797 22.0781C19.1016 23.5781 17.9531 25.0312 16.8047 26.3906C16.4062 26.8593 16.0312 27.3047 15.7031 27.6797C15.4922 27.914 15.3516 28.0547 15.2812 28.1484C15.0234 28.4297 14.6719 28.4531 14.4141 28.1718Z" fill-rule="evenodd" fill="#FEC400"/>
		<path id="path" d="M14.8359 16.9453C11.6719 16.9453 9.09375 14.3672 9.09375 11.2031C9.09375 8.03906 11.6719 5.46094 14.8359 5.46094C18 5.46094 20.5781 8.03906 20.5781 11.2031C20.5781 14.3672 18 16.9453 14.8359 16.9453ZM14.8359 6.86719C12.4453 6.86719 10.5 8.8125 10.5 11.2031C10.5 13.5938 12.4453 15.5391 14.8359 15.5391C17.2266 15.5391 19.1719 13.5938 19.1719 11.2031C19.1719 8.8125 17.2266 6.86719 14.8359 6.86719Z" fill-rule="evenodd" fill="#FEC400"/>
	</g>
	<defs>
		<clipPath id="clip2_10">
			<rect id="map-svgrepo-com.svg" width="30.000000" height="30.000000" fill="white"/>
		</clipPath>
	</defs>
</svg>
