<svg width="38.000000" height="38.000122" viewBox="0 0 38 38.0001" fill="none" xmlns="http://www.w3.org/2000/svg" xmlns:xlink="http://www.w3.org/1999/xlink">
	<desc>
			Created with Pixso.
	</desc>
	<path id="path" d="M2.47183 9.64905C2.42706 9.81885 2.45712 10.0002 2.55457 10.1467L4.41656 12.9403L9.90939 21.1796C9.93146 21.2133 9.95599 21.2433 9.98602 21.2727L12.4297 23.7164L13.3349 24.6216C12.3622 24.9072 11.6451 25.7985 11.6451 26.8624C11.6451 26.9022 11.6543 26.9397 11.6568 26.9789C11.6169 26.9771 11.5796 26.9678 11.5397 26.9678C10.2465 26.9678 9.19354 28.0208 9.19354 29.3141C9.19354 29.9404 9.43747 30.53 9.88058 30.9731L11.9301 33.0227C12.1974 33.2899 12.521 33.4744 12.8709 33.5872L12.8709 38.0001L14.0967 38.0001L14.0967 33.6509C15.1467 33.418 15.9355 32.4822 15.9355 31.3635C15.9355 31.3237 15.9263 31.2864 15.9238 31.2471C15.9637 31.249 16.001 31.2582 16.0409 31.2582C17.1049 31.2582 17.996 30.541 18.2823 29.5684L19.1796 30.4657C19.2991 30.5852 19.456 30.6453 19.6129 30.6453C19.7698 30.6453 19.9267 30.5852 20.0462 30.4657L21.1451 29.3667L22.0645 30.2861L22.0645 31.2582L23.2903 31.2582L23.2903 30.0323C23.2903 29.8693 23.226 29.7136 23.1107 29.599L20.2258 26.7141L20.2258 24.5162C20.2258 24.3531 20.1614 24.1975 20.0462 24.0829L17.4892 21.5259C16.7721 20.8087 16.7721 19.6431 17.4892 18.9259L17.7742 18.6409L21.6312 22.4979C21.7458 22.6132 21.9015 22.6775 22.0645 22.6775L26.9677 22.6775L26.9677 38.0001L28.1935 38.0001L28.1935 22.3184L34.1509 16.361L36.5946 13.9172C36.8342 13.6776 36.8342 13.2903 36.5946 13.0507L34.1509 10.6069L29.8453 6.30139L27.4016 3.85767C27.162 3.61804 26.7747 3.61804 26.535 3.85767L26.204 4.18872L21.6685 2.44434L18.6083 1.26758C18.5299 1.23755 18.4496 1.22473 18.3705 1.22778C18.2951 1.23145 18.2118 1.24854 18.1431 1.27856C18.1186 1.28906 18.1003 1.30981 18.0769 1.32397C17.966 1.39014 17.8704 1.48328 17.8189 1.61267L17.4677 2.49036L9.10651 3.68359C8.94345 3.70691 8.79761 3.79456 8.70013 3.92639C8.60269 4.05933 8.56161 4.22485 8.58798 4.38721L8.88034 6.21313L2.78992 9.25793C2.63303 9.33643 2.51718 9.47925 2.47183 9.64905ZM5.99661 9.02637C6.08487 9.27759 6.129 9.53809 6.129 9.80652C6.129 10.5953 5.74472 11.3278 5.11957 11.7838L3.95932 10.0443L5.99661 9.02637ZM12.8826 19.2428C13.2687 19.6841 13.4839 20.2437 13.4839 20.8387C13.4839 21.434 13.2687 21.9935 12.8826 22.4348L11.286 20.8387L12.8826 19.2428ZM14.7097 31.3635C14.7097 31.9813 14.2071 32.484 13.5893 32.484C13.2945 32.484 13.0052 32.3645 12.7968 32.156L10.7473 30.1066C10.5388 29.8981 10.4193 29.6095 10.4193 29.3141C10.4193 28.6962 10.9219 28.1936 11.5397 28.1936C11.8345 28.1936 12.1238 28.3131 12.3322 28.5215L14.3817 30.571C14.5901 30.7795 14.7097 31.0681 14.7097 31.3635ZM17.1613 28.912C17.1613 29.5298 16.6587 30.0323 16.0409 30.0323C15.7461 30.0323 15.4568 29.9128 15.2484 29.7045L13.1989 27.6549C12.9905 27.4465 12.8709 27.1578 12.8709 26.8624C12.8709 26.2446 13.3735 25.7421 13.9913 25.7421C14.2861 25.7421 14.5754 25.8616 14.7838 26.0699L16.8334 28.1195C17.0417 28.3279 17.1613 28.6166 17.1613 28.912ZM20.2785 28.5001L19.6129 29.1656L18.0206 27.5734C18.3098 27.3196 18.6482 27.14 19.0153 27.0463C19.0331 27.1793 19.0833 27.3055 19.1796 27.4011L20.2785 28.5001ZM22.3182 21.4517L18.2075 17.3409C17.9679 17.1013 17.5805 17.1013 17.3409 17.3409L16.6225 18.0593C15.428 19.2538 15.428 21.198 16.6225 22.3925L19 24.77L19 25.7991C18.3086 25.9161 17.6724 26.228 17.1527 26.705L15.6505 25.2026L13.7462 23.2983C14.3622 22.6278 14.7097 21.7643 14.7097 20.8387C14.7097 19.9133 14.3622 19.0497 13.7462 18.3787L24.5069 7.61792C25.1786 8.23328 26.0422 8.58069 26.9677 8.58069C27.8932 8.58069 28.7568 8.23328 29.4279 7.61731L32.8338 11.0232C32.2185 11.6949 31.8709 12.5585 31.8709 13.484C31.8709 14.4094 32.2185 15.2731 32.8344 15.9442L27.3269 21.4517L22.3182 21.4517ZM33.698 15.08C33.3119 14.6387 33.0967 14.0791 33.0967 13.484C33.0967 12.8888 33.3119 12.3292 33.698 11.8879L35.2946 13.484L33.698 15.08ZM28.5637 6.75366C27.6818 7.5271 26.2543 7.5271 25.3723 6.75366L26.9677 5.1571L28.5637 6.75366ZM24.0908 6.30078L12.7104 17.6812L17.4965 5.71484C17.9519 5.97656 18.4612 6.12915 19 6.12915C20.4115 6.12915 21.5907 5.16504 21.9456 3.86389L25.2547 5.13684L24.0908 6.30078ZM19.953 3.09766L20.8031 3.42505C20.6352 4.26648 19.8905 4.90332 19 4.90332C18.6206 4.90332 18.2596 4.78809 17.9538 4.57239L18.7315 2.62756L19.953 3.09766ZM11.7947 16.6692L10.393 7.90894C11.8026 7.63379 12.8709 6.39209 12.8709 4.90332C12.8709 4.73108 12.852 4.56006 12.8225 4.39087L16.9419 3.80249L11.7947 16.6692ZM11.6114 4.56372C11.6335 4.67651 11.6451 4.78931 11.6451 4.90332C11.6451 5.78528 11.0206 6.52502 10.2005 6.70154L9.89777 4.80896L11.6114 4.56372ZM10.9084 18.8855L10.5131 19.8741L5.79437 12.7969C6.75662 12.116 7.35483 11.0084 7.35483 9.80652C7.35483 9.35303 7.26044 8.9043 7.09189 8.47839L9.08383 7.48242L10.9084 18.8855Z" fill-rule="nonzero" fill="#FFFFFF"/>
	<path id="path" d="M27.5807 16.5482C27.5807 14.5201 25.9313 12.8708 23.9033 12.8708C21.8752 12.8708 20.2258 14.5201 20.2258 16.5482C20.2258 18.5764 21.8752 20.2257 23.9033 20.2257C25.9313 20.2257 27.5807 18.5764 27.5807 16.5482ZM23.9033 18.9999C22.5512 18.9999 21.4516 17.9004 21.4516 16.5482C21.4516 15.1962 22.5512 14.0967 23.9033 14.0967C25.2553 14.0967 26.3549 15.1962 26.3549 16.5482C26.3549 17.9004 25.2553 18.9999 23.9033 18.9999Z" fill-rule="nonzero" fill="#FFFFFF"/>
	<path id="path" d="M37.3871 21.4518C36.035 21.4518 34.9355 20.3522 34.9355 19.0001C34.9355 18.6611 34.6615 18.3872 34.3226 18.3872C33.9836 18.3872 33.7097 18.6611 33.7097 19.0001C33.7097 20.3522 32.6101 21.4518 31.2581 21.4518C30.9191 21.4518 30.6451 21.7257 30.6451 22.0646C30.6451 22.4036 30.9191 22.6775 31.2581 22.6775C32.6101 22.6775 33.7097 23.7771 33.7097 25.1292C33.7097 25.4681 33.9836 25.7421 34.3226 25.7421C34.6615 25.7421 34.9355 25.4681 34.9355 25.1292C34.9355 23.7771 36.035 22.6775 37.3871 22.6775C37.726 22.6775 38 22.4036 38 22.0646C38 21.7257 37.726 21.4518 37.3871 21.4518ZM34.3226 23.0986C34.0504 22.6892 33.698 22.3374 33.2886 22.0646C33.698 21.7925 34.0498 21.4401 34.3226 21.0306C34.5947 21.4401 34.9471 21.7919 35.3565 22.0646C34.9471 22.3368 34.5947 22.6892 34.3226 23.0986Z" fill-rule="nonzero" fill="#FFFFFF"/>
	<path id="path" d="M1.22583 23.9031C1.22583 24.2421 1.49979 24.516 1.83875 24.516C3.5285 24.516 4.90326 25.8907 4.90326 27.5806C4.90326 27.9194 5.17722 28.1935 5.51614 28.1935C5.8551 28.1935 6.12906 27.9194 6.12906 27.5806C6.12906 25.8907 7.50378 24.516 9.19357 24.516C9.5325 24.516 9.80649 24.2421 9.80649 23.9031C9.80649 23.5642 9.5325 23.2902 9.19357 23.2902C7.50378 23.2902 6.12906 21.9155 6.12906 20.2257C6.12906 19.8867 5.8551 19.6128 5.51614 19.6128C5.17722 19.6128 4.90326 19.8867 4.90326 20.2257C4.90326 21.9155 3.5285 23.2902 1.83875 23.2902C1.49979 23.2902 1.22583 23.5642 1.22583 23.9031ZM5.51614 22.434C5.87839 23.0347 6.38464 23.5415 6.98529 23.9031C6.38464 24.2654 5.87778 24.7716 5.51614 25.3722C5.15393 24.7716 4.64767 24.2654 4.04703 23.9031C4.64767 23.5409 5.15393 23.0347 5.51614 22.434Z" fill-rule="nonzero" fill="#FFFFFF"/>
	<defs/>
</svg>
