<svg width="51.904678" height="16.713501" viewBox="0 0 51.9047 16.7135" fill="none" xmlns="http://www.w3.org/2000/svg" xmlns:xlink="http://www.w3.org/1999/xlink">
	<desc>
			Created with Pixso.
	</desc>
	<path id="path" d="M14.1545 15.1075C14.314 15.043 14.5748 15.043 14.7342 15.1075C14.8937 15.1721 14.4747 15.1075 14.1545 15.1075ZM3.565 14.9441C3.6183 14.8967 4.54863 14.1497 5.6327 13.2812C6.71681 12.413 8.95458 10.5337 10.6057 9.10498C13.3547 6.72668 13.6857 6.50806 14.5338 6.50806C15.2049 6.50806 15.8855 6.25415 17.0047 5.58118L18.5494 4.65417L20.0331 5.31653C20.8492 5.68225 22.0846 6.46033 22.7784 7.04895C24.4175 8.44019 25.0043 8.45435 26.0057 7.12646C26.9322 5.89868 27.5536 5.52783 29.9375 4.77991C30.9714 4.45715 32.126 3.93213 32.5033 3.61719C32.8807 3.30298 33.6934 2.82666 34.3097 2.56152C34.9259 2.2948 35.7624 1.76636 36.1684 1.38428C36.5979 0.979736 37.0513 0.744385 37.2522 0.820923C37.442 0.894043 38.0222 1.52319 38.541 2.22083C39.0599 2.91833 39.9287 3.79578 40.4718 4.17102C41.0148 4.54541 41.8766 5.28418 42.3867 5.81177C42.8969 6.33936 43.9664 7.23486 44.7636 7.802C45.5606 8.36914 46.2128 8.87476 46.2128 8.92554C46.2128 9.07617 45.0715 8.53833 42.9649 7.39929C41.8817 6.8136 40.6211 6.21545 40.1636 6.06995C39.7061 5.92371 39.0107 5.44519 38.6182 5.00488C37.42 3.66101 36.1993 4.07507 36.6068 5.68738C36.716 6.11987 37.0923 6.44653 37.9495 6.85364C38.6044 7.16345 39.4533 7.68115 39.836 8.00208C40.5227 8.57788 40.5242 8.58386 39.9521 8.47974C39.6332 8.41956 38.8767 8.31189 38.2709 8.23022C37.2948 8.10535 37.1694 8.02368 37.1694 7.52319C37.1694 7.10144 36.9584 6.85791 36.3351 6.56274C35.8193 6.31738 35.3306 5.8363 35.055 5.30017C34.3633 3.95361 33.7376 4.10168 32.4302 5.92114C31.8418 6.73999 30.9718 7.72974 30.4968 8.12134C29.6268 8.83777 26.7345 10.5134 26.7345 10.3004C26.7345 10.236 27.4532 9.72852 28.3316 9.16956C29.6716 8.31665 29.9937 7.98364 30.3331 7.10107C30.6607 6.24939 30.6824 5.98303 30.4467 5.70117C29.7182 4.82983 28.3898 5.50757 26.6267 7.64624C24.3225 10.4429 21.1803 12.959 18.7131 13.9827C21.0017 12.6836 23.2561 10.3306 23.2561 9.58655C23.2561 9.00903 20.9551 7.33813 19.8189 7.09021C18.97 6.90527 17.0963 7.32263 16.3232 7.87134C15.9912 8.10803 15.0996 9.23499 14.3416 10.3796C13.1705 12.1483 12.9012 12.428 12.5498 12.2412C12.2651 12.0906 11.863 12.1337 11.2613 12.3746L10.3864 12.7274L11.4299 11.8617C13.1662 10.4209 13.5169 10.0066 13.5169 9.39465C13.5169 8.20007 12.4992 8.63464 8.77614 11.421C4.85365 14.3562 3.82054 14.9441 3.565 14.9441ZM16.1755 14.673C16.8088 14.5009 17.3664 14.3976 17.4147 14.4448C17.5304 14.561 15.8179 15.0293 15.372 15.0043C15.1804 15.0043 15.5422 14.8451 16.1755 14.673ZM48.6573 13.7086C48.4077 13.644 47.9902 13.459 47.7298 13.2911C47.4693 13.1277 46.6457 12.9167 45.8993 12.8273C44.3893 12.6466 44.512 12.3794 46.2131 12.1473C47.3321 11.9968 47.706 11.8375 47.8595 11.4563C47.9106 11.3315 48.5446 11.822 49.2685 12.5502L50.5849 13.8743L49.8483 13.8313C49.4431 13.8313 48.9071 13.7732 48.6573 13.7086ZM10.9661 15.6545C11.0298 15.59 11.9948 15.3662 13.1105 15.1583C17.2774 14.3868 18.8726 13.6505 21.8068 11.1443C22.4763 10.572 23.2561 9.80994 23.2561 9.58655C23.2561 9.05603 20.9827 7.43665 19.8189 7.09021C18.6383 6.73743 17.1453 7.43665 16.2213 8.30591C15.8595 8.64587 14.995 9.78064 14.3003 10.8254C13.6055 11.8702 12.9572 12.7249 12.8595 12.7249C12.762 12.7249 12.6893 12.3832 12.5498 12.2412C12.366 12.0604 12.0558 12.026 11.2613 12.3746C9.56225 13.1212 9.1817 13.2736 10.5394 12.2279C12.4344 10.7682 13.5169 9.8512 13.5169 9.39465C13.5169 8.57703 12.2377 9.05603 10.0385 10.7631C6.54569 13.4719 3.86972 15.2474 3.03824 15.4071C2.36294 15.5361 2.49411 15.4071 4.12539 14.172C5.14567 13.4113 7.44134 11.5175 9.22689 9.9635C13.0678 6.62085 13.3684 6.50928 14.5338 6.50806C15.1256 6.50757 16.3571 6.01917 17.0047 5.58118C18.9123 4.28845 18.3136 4.51099 20.0331 5.31653C20.8893 5.71667 22.2548 6.57043 22.7784 7.04895C24.5514 8.66821 24.4927 8.70312 26.0057 7.12646C27.2231 5.85608 27.5339 5.33752 29.3444 4.78894C30.4326 4.45752 32.0752 3.93005 32.5033 3.61719C32.9314 3.30298 33.6082 2.88953 34.3097 2.56152C35.0111 2.2345 35.8026 1.75342 36.1684 1.38428C36.5342 1.01416 37.0812 0.820923 37.2522 0.820923C37.6296 0.820923 38.0897 1.37732 38.541 2.22083C38.7221 2.56067 39.585 3.25269 39.9954 3.54272C40.4058 3.83105 41.488 5.00317 42.3867 5.81177C43.2855 6.61987 44.1896 7.41565 44.7636 7.802C46.3195 8.85034 47.3621 9.51123 47.8849 10.5354C48.1436 11.0419 48.9948 12.0618 49.7767 12.8015L51.1984 14.1467L49.8483 13.8313C49.0341 13.7495 47.9996 13.4624 47.7298 13.2911C47.4598 13.119 46.537 12.9065 45.8993 12.8273C43.1736 12.483 43.7489 12.7206 46.2131 12.1473C47.6983 11.8031 47.8099 11.9443 47.8595 11.4563C47.8898 11.1508 47.4188 10.3246 47.1965 10.0664C46.7352 9.53064 40.7096 6.06995 40.1636 6.06995C39.966 6.06995 39.1716 5.51318 38.6182 5.00488C37.5552 4.03198 37.0134 4.19849 36.7835 4.7937C36.5265 5.45898 36.7077 6.24512 37.9495 6.85364C39.1205 7.42725 41.0279 8.51892 40.8481 8.67603C40.7423 8.77063 37.7085 8.40491 37.1684 8.23279C36.8989 8.14673 37.0992 7.88599 37.1694 7.52319C37.2518 7.09717 36.9234 6.80457 36.3351 6.56274C35.9304 6.3949 35.3695 5.79456 35.055 5.30017C34.6962 4.7356 34.2186 4.66199 33.9766 4.7085C33.7642 4.75146 33.0134 5.53601 32.3075 6.45691C31.009 8.15186 30.3804 8.66821 28.1876 9.84094C27.5202 10.198 26.6023 10.859 26.1477 11.3101C25.6051 11.8492 25.3848 11.9731 25.5061 11.6715C25.858 10.7966 26.3978 10.2416 27.8714 9.23975C29.5893 8.0719 30.2074 7.33813 30.2781 6.38416C30.3223 5.78809 30.2434 5.69043 29.6636 5.62463C29.0779 5.56006 28.6354 5.91724 25.9534 8.64929C22.018 12.656 19.7543 13.765 16.1755 14.673C14.5656 15.0818 10.733 15.8964 10.9661 15.6545ZM9.00502 15.9729C9.13806 15.8352 11.2028 15.5332 13.1105 15.1583C18.1845 14.1613 18.0613 13.9246 21.2271 11.3905C22.1328 10.6658 22.7923 9.95959 22.7923 9.71521C22.7923 9.26685 21.805 8.43335 20.493 7.77356C19.9379 7.4939 19.3605 7.40784 18.5627 7.48535C16.8624 7.6488 16.4672 8.00562 13.7914 11.807C12.8509 13.1427 12.7654 13.2059 12.3752 12.8552C11.9913 12.511 11.8756 12.5197 10.8397 12.9585C8.68674 13.8751 8.70628 13.4169 10.8939 11.6879C12.9077 10.0961 13.5192 9.26294 12.6643 9.27673C12.4316 9.28015 10.5264 10.5754 8.43025 12.1543C6.02638 13.9655 3.83809 15.1101 3.03824 15.4071C1.1363 16.1141 1.18925 15.9592 2.7538 14.9351C4.60925 13.7207 6.94309 11.7993 12.5293 6.88721C12.8223 6.62903 13.8459 6.60059 14.5338 6.50806C15.368 6.39612 15.9801 5.79504 17.045 5.13184L18.6017 4.16284L20.0855 4.85901C20.9015 5.24207 22.0586 5.97571 22.6568 6.48999C24.5549 8.12134 24.8005 8.45569 26.0057 7.12646C27.175 5.83508 27.5728 5.53418 29.9375 4.77991C30.8303 4.49585 32.0373 3.979 32.5033 3.61719C32.9692 3.25574 33.7553 2.77026 34.3097 2.56152C34.864 2.35071 35.4179 1.6123 35.6864 1.32532C36.39 0.572632 36.8352 0.588989 37.2522 0.820923C37.4472 0.928467 38.0959 1.599 38.541 2.22083C38.9861 2.84216 39.8446 3.66101 40.4718 4.17102C41.099 4.6814 42.5005 5.40295 43.376 6.16296C44.2515 6.92249 45.4448 7.87085 46.0278 8.26978C46.6588 8.70142 47.2666 9.59607 47.8849 10.5354C48.4561 11.403 49.7479 12.616 50.4603 13.1862C51.1727 13.756 51.7607 14.2822 51.7668 14.3558C51.7842 14.5796 48.5941 13.6609 47.7298 13.2911C47.2834 13.0975 45.8563 13.1686 44.9954 13.08C44.1345 12.9895 43.4302 12.826 43.4302 12.7141C43.4302 12.5162 45.0306 12.002 46.5993 11.6917C47.0031 11.61 47.7904 11.6335 47.8595 11.4563C48.064 10.927 46.519 9.56982 45.1326 8.93982C44.4222 8.61707 43.6837 7.82996 42.9649 7.39929C42.2462 6.96802 40.8284 6.67761 40.3409 6.5459C39.8534 6.41248 39.1948 5.53296 38.6182 5.00488C37.5223 4.00183 36.4584 4.65247 36.6068 5.68738C36.6609 6.06177 37.0623 6.35828 37.9495 6.85364C38.6509 7.24524 40.0736 7.69482 40.6476 8.11572L41.6911 8.88123L39.9521 8.47974C37.2869 8.28186 36.7055 8.42517 36.7055 7.76453C36.7055 7.3988 36.7844 6.79333 36.3351 6.56274C35.9676 6.37341 35.3211 5.74805 35.055 5.30017C34.7889 4.85217 34.1691 4.7085 33.9766 4.7085C33.7842 4.7085 33.0297 5.50366 32.3075 6.45691C31.1848 7.93799 30.7633 8.55469 28.9198 9.6322C27.5154 10.4528 26.1443 10.9202 25.5061 11.6715C24.9674 12.3062 24.7591 13.1543 24.7037 13.0992C24.6482 13.0433 25.0935 12.4404 25.5061 11.6715C26.125 10.5182 26.551 10.1034 27.8714 9.23975C30.1358 7.75818 31.0928 5.62463 29.6636 5.62463C29.1563 5.62463 28.1716 6.33545 25.9534 8.64929C21.1688 13.6401 18.1035 15.3601 12.0096 15.8413C10.9893 15.923 9.84141 16.0435 9.45882 16.1123C8.95828 16.2028 8.83104 16.158 9.00502 15.9729ZM8.30463 16.1838C8.09663 15.8481 8.39823 15.7578 12.6218 14.8979C14.8358 14.4467 17.1691 13.8412 17.8068 13.552C18.8517 13.0781 22.4453 10.2729 22.7923 9.71521C22.9856 9.4054 22.4665 9.1709 21.2225 8.35242C20.4045 7.81445 19.9026 7.65527 19.0272 7.65527C17.1548 7.65527 16.1932 7.97498 14.3003 10.8254C12.9544 12.8518 12.9308 13.3131 12.3752 12.8552C12.097 12.6272 11.7891 12.5541 10.8397 12.9585C10.1927 13.234 9.26147 13.6389 8.92009 13.5997C8.33947 13.5352 8.39667 13.4534 9.80669 12.3978C11.7894 10.9111 12.6643 9.65625 12.6643 9.27673C12.6643 8.81677 12.1939 9.48718 8.99506 11.9128C5.05068 14.9053 4.52878 14.9768 3.03824 15.4071C1.0037 15.9945 0.476243 16.1855 2.06207 15.2156C3.76988 14.1686 5.42318 12.8613 9.4758 9.35327C13.0759 6.23657 13.3337 6.06519 14.4444 6.04895C14.9765 6.04895 15.9334 5.79541 17.045 5.13184L18.6017 4.16284L20.0855 4.85901C21.0022 5.30872 22.1589 6.49597 22.7784 7.04895C23.3981 7.60144 24.3738 7.65662 24.545 7.65662C24.7162 7.65662 25.2446 7.19482 25.7192 6.6311C26.6774 5.49292 27.818 4.84143 29.7895 4.30652C30.5133 4.10852 31.4525 3.69507 31.8765 3.38477C32.3007 3.07495 33.5444 2.92944 34.3097 2.56152C35.0749 2.19153 35.6831 1.21387 35.9923 0.88501C36.8116 0.0140381 37.4714 0.116455 38.3736 1.25513C38.7953 1.78748 39.5466 2.59045 40.0431 3.03967C40.5396 3.48938 41.531 4.39221 42.2462 5.04626C42.9615 5.70032 44.4291 6.89233 45.5077 7.69446C46.934 8.75562 47.3579 9.63611 47.8849 10.5354C48.2835 11.2157 49.6418 12.4546 50.4603 13.1862C51.2788 13.9177 51.8575 14.2633 51.7668 14.3558C51.5246 14.6053 48.1383 14.1583 47.5385 13.7761C47.2559 13.5955 46.0504 13.1707 44.9954 13.08C43.9405 12.9895 43.4953 12.8174 43.4302 12.7141C43.2538 12.4302 44.1476 12.0747 45.7612 11.7012C46.5457 11.5204 47.2467 11.3138 47.3189 11.2402C47.3913 11.1671 47.3103 10.8486 47.14 10.5337C46.8132 9.92737 41.5604 6.78821 40.3409 6.5459C39.9899 6.47705 38.9061 6.05273 38.421 5.55957C37.3772 4.49805 37.1128 4.44031 37.212 5.29712C37.2683 5.78381 37.1134 6.41125 37.9495 6.85364C39.5344 7.69275 41.6911 8.62561 41.6911 8.88123C41.6911 9.10938 38.7243 8.55127 37.1684 8.23279C36.5089 8.09937 36.7653 8.27454 36.7055 7.76453C36.6574 7.35144 36.2184 7.07861 35.7904 6.85876C35.4316 6.67371 35.3287 5.76099 35.055 5.30017C34.4625 4.3031 33.8898 4.31641 32.3075 6.45691C31.2528 7.88342 30.8679 8.66309 27.8265 10.4377C26.9282 10.9619 26.2055 11.6224 25.643 12.4331C24.364 14.2775 23.9865 13.9926 24.9612 11.9185C25.5183 10.7329 26.8845 9.33179 28.0843 8.71606C29.3758 8.05249 30.3025 6.0166 29.6636 5.62463C29.3364 5.42236 28.4086 6.43225 27.6157 7.35193C24.5658 10.89 22.3889 12.6974 19.3705 14.1979C17.3669 15.1941 15.4409 15.5082 12.0096 15.8413C10.6066 15.979 9.35078 15.917 9.00502 15.9729C8.65922 16.0289 8.37543 16.2871 8.30463 16.1838ZM0.53119 16.1838C0.53119 16.0676 1.28298 15.6859 2.06207 15.2156C3.8273 14.151 6.18285 12.2666 9.4758 9.35327C12.5996 6.59021 13.4139 6.04895 14.4444 6.04895C14.9422 6.04895 16.0621 5.72144 17.045 5.13184C17.8908 4.625 18.4975 4.16284 18.6017 4.16284C18.7057 4.16284 19.2413 4.16882 19.7172 4.4231C20.1932 4.677 20.6913 4.88354 20.8243 4.88354C20.9573 4.88354 21.7128 5.74255 22.6568 6.48999C23.6009 7.23706 24.4085 7.71167 24.545 7.65662C24.6815 7.60059 25.4004 7.07434 25.7192 6.6311C26.4671 5.59229 27.7035 4.91504 29.7895 4.30652C30.709 4.03967 31.5031 3.69678 31.8765 3.38477C32.25 3.07495 33.2359 2.34216 33.8777 2.04688C34.5194 1.75 35.5311 1.28735 35.9923 0.88501C36.4536 0.484863 36.9208 0.0476074 37.1643 0.0476074C37.4078 0.0476074 37.9519 0.726685 38.3736 1.25513C39.762 2.99573 42.786 5.68652 45.5077 7.69446C46.5857 8.48962 47.3018 9.62012 47.8849 10.5354C48.3641 11.2881 49.6586 12.1267 50.254 12.6207C50.8493 13.1147 51.5658 14.0515 51.7668 14.3558L50.3015 14.4922C49.3304 14.4191 47.9406 13.9736 47.5385 13.7761C47.1363 13.5782 46.125 13.2236 44.9954 13.08C42.044 12.7056 42.2954 12.4709 45.7612 11.7012C46.4763 11.5419 47.3189 11.3552 47.3189 11.2402C47.3189 10.6581 46.5167 9.85291 45.4394 9.37524C44.7807 9.08264 43.4069 8.36792 42.3866 7.78613C40.5079 6.71509 39.1148 6.34619 39.731 7.08337C39.8956 7.28137 40.0954 7.79431 40.6476 8.11572C41.1998 8.43848 41.6911 8.70349 41.6911 8.88123C41.6222 8.88123 40.7895 9.14502 39.5686 9.0116C36.7521 8.70178 36.6102 8.43628 36.7055 7.76453C36.7575 7.3988 36.2308 7.07043 35.7904 6.85876C35.4515 6.69519 34.9053 6.3501 34.6368 5.89832C34.3681 5.44604 34.0586 5.11035 33.9487 5.1521C33.8386 5.19519 32.9293 5.63794 32.3075 6.45691C31.114 8.02881 30.279 9.02283 27.8265 10.4377C26.7615 11.0522 26.2646 11.5565 25.643 12.4331C24.7846 13.644 24.1832 14.2043 24.1835 13.592C24.184 12.9852 25.5323 10.5096 26.1832 9.92139C26.5498 9.58997 27.3678 9.16394 28.0843 8.71606C29.8164 7.63379 30.5679 5.67151 29.0745 6.14233C28.8336 6.21973 27.8461 7.203 26.8801 8.33093C23.9298 11.7756 20.888 13.9552 17.4145 15.1132C15.5965 15.7191 8.64102 16.5177 8.30463 16.1838C7.92113 15.8052 8.83069 15.4915 11.9215 14.91C16.4029 14.0675 17.8608 13.5774 19.5814 12.3359C21.3326 11.072 22.793 10.0504 22.7923 9.71521C22.7914 9.2793 19.9686 7.78052 19.0272 7.65527C18.3901 7.56921 18.1299 7.75989 17.3973 8.06104C16.4909 8.45703 16.123 8.85413 14.8174 10.8333C13.9799 12.1027 13.1781 13.2129 13.0357 13.3002C12.8931 13.3864 12.6839 13.036 12.3752 12.8552C11.9032 12.6057 11.4995 12.6444 10.8397 12.9585C10.4081 13.1652 9.37929 13.514 8.92009 13.5997C7.60163 13.845 8.02066 13.7189 9.80669 12.3978C10.6676 11.7601 11.7981 10.6516 12.1068 10.3224C13.315 9.03442 12.2888 9.58008 9.43293 11.7446C5.17725 14.9698 4.36592 15.4836 2.76554 15.9669C1.18768 16.4432 0.53119 16.5052 0.53119 16.1838ZM38.421 5.55957C37.5005 4.46619 37.212 4.66406 37.212 5.29712C37.212 5.62842 38.4352 6.49255 38.8864 6.49475C39.0017 6.49512 38.6606 5.84448 38.421 5.55957ZM0.0674362 16.3916C0.0674362 16.2626 0.551166 15.8732 1.14236 15.528C2.97562 14.4578 4.79341 13.0657 8.19109 10.1296C12.5506 6.36304 13.3641 6.04895 14.4444 6.04895C14.9907 6.04895 15.6261 5.58936 16.1647 5.22656C17.9261 4.03967 18.7406 3.72815 19.2223 4.05737C19.4641 4.22095 19.6306 4.71362 20.0855 4.85901C20.5404 5.00537 21.8363 5.79712 22.6568 6.48999C23.4773 7.18237 24.3963 7.65491 24.545 7.65662C24.6936 7.65833 25.321 7.1311 25.7192 6.6311C26.648 5.46667 27.7996 4.9043 29.7895 4.30652C30.6706 4.04407 31.3378 3.76086 31.8765 3.38477C32.4153 3.01038 33.1901 2.349 33.8777 2.04688C34.5653 1.74573 35.9133 1.08948 35.9923 0.88501C36.1947 0.361328 37.1826 -0.19165 37.6651 0.0648193C37.8775 0.176758 38.4502 0.815796 38.9376 1.48315C39.425 2.15015 39.7846 2.85291 40.0431 3.03967C40.3014 3.22473 41.6505 4.16064 42.7346 5.12073C43.8186 6.08118 44.9338 7.30237 45.5077 7.69446C46.8044 8.58008 47.8175 9.29956 48.5983 10.662C48.9315 11.2438 49.8332 12.3005 50.254 12.6207C51.2575 13.3842 51.7668 14.111 51.7668 14.3558C51.7668 14.9552 48.6073 14.4647 47.5385 13.7761C47.2694 13.604 46.1225 13.1707 44.9954 13.08C41.9497 12.8389 41.9639 12.4512 45.0533 11.6654C47.4 11.0681 47.5239 11.1194 47.14 10.5337C46.9541 10.2496 45.9377 9.62695 45.4394 9.37524C44.9412 9.12573 43.4941 8.40063 42.3866 7.78613C40.0634 6.49768 38.6568 6.86011 40.6476 8.11572C42.5332 9.30469 42.7244 9.35852 40.1257 9.16699C38.946 9.08093 37.5895 8.90454 37.1112 8.77966C36.3635 8.58179 36.2416 8.45703 36.2416 7.89331C36.2416 7.38245 36.2463 6.97241 35.7904 6.85876C35.4264 6.76843 34.8777 6.40002 34.6368 5.89832C34.4236 5.45374 34.102 5.11597 33.9487 5.1521C33.7953 5.19519 33.174 6.18494 32.4876 7.07129C31.6607 8.1394 30.812 8.93335 29.9725 9.42432C29.2755 9.83313 28.3651 10.1218 27.8265 10.4377C27.2739 10.7605 26.2027 11.6516 25.643 12.4331C24.048 14.6604 23.7054 14.528 24.9612 11.9185C25.6889 10.4067 26.2479 9.85596 28.0843 8.71606C29.8108 7.64453 30.1269 6.14233 29.0745 6.14233C28.808 6.14233 28.3433 6.49988 27.6157 7.35193C24.4741 11.0299 20.6232 14.0051 17.4145 15.1132C16.0129 15.5973 13.8172 15.6735 9.45882 16.1123C8.25563 16.2329 8.30463 16.5797 8.30463 16.1838C8.30463 15.6157 7.97685 15.8478 12.6218 14.8979C14.7899 14.4548 17.2966 13.7822 17.8068 13.552C19.1725 12.9353 22.3093 10.4916 22.7923 9.71521C22.8903 9.55603 21.9603 8.84558 21.2225 8.35242C20.2264 7.68579 19.5108 7.4845 18.5627 7.48535C16.8981 7.48621 16.5038 8.32227 14.8174 10.8333C13.1306 13.345 12.7418 13.8407 12.1382 13.2985C11.7659 12.9629 11.6458 12.9714 10.711 13.3932C9.49694 13.9401 8.18334 14.0154 8.18334 13.5394C8.18334 13.3588 9.00957 12.9762 9.80669 12.3978C11.768 10.9747 12.39 10.3237 12.1068 10.3224C11.9773 10.3215 10.3361 11.1964 8.2996 12.7202C5.09293 15.1191 4.33559 15.4742 2.76554 15.9669C0.813115 16.5792 0.0674362 16.7665 0.0674362 16.3916ZM38.421 5.55957C37.9185 5.00842 37.212 4.81177 37.212 5.29712C37.212 5.49072 37.6361 5.90906 37.9229 6.01709C38.6248 6.27954 38.9286 6.1156 38.421 5.55957ZM0.0674362 16.3916C-0.205564 15.9528 0.360283 15.7161 1.58402 15.0305C3.03456 14.2173 5.89464 12.4946 9.4758 9.35327C12.8002 6.43701 13.3612 5.57422 14.4689 5.57422C15.1104 5.57422 15.754 5.32031 16.7914 4.65332C17.5807 4.14648 18.3828 3.73206 18.5739 3.73206C19.2664 3.73206 21.985 5.18005 23.1534 6.17151C23.8113 6.72961 24.4212 7.18628 24.5086 7.18628C24.5961 7.18628 25.2195 6.62512 25.8939 5.93872C26.9911 4.82288 27.3379 4.62585 29.1882 4.06641C30.3256 3.72217 31.5693 3.17993 31.9518 2.85974C32.3345 2.54138 33.237 2.32922 33.8777 2.04688C34.5183 1.76294 35.5674 1.27917 35.9923 0.88501C37.2058 -0.240723 37.6854 -0.117554 38.9376 1.48315C40.0004 2.84167 43.5962 5.80701 45.4609 7.11353C47.0157 8.20312 47.8523 9.36877 48.5983 10.662C48.9653 11.298 49.6902 12.1809 50.254 12.6207C51.5058 13.5975 52.2223 13.9036 51.7668 14.3558C51.5112 14.6097 51.0967 14.994 49.7857 14.7745C48.9047 14.6239 47.923 14.37 47.604 14.2095C47.285 14.0503 46.398 13.848 45.6329 13.7662C42.6937 13.4479 42.5027 13.3962 42.5027 12.9155C42.5027 12.3845 44.3479 11.4709 45.923 11.2218C47.0046 11.0497 47.1135 10.8904 46.5027 10.3728C45.9274 9.8844 40.6199 7.14233 40.4932 7.26794C40.4356 7.32397 40.8382 7.61658 41.3875 7.9187C42.0555 8.28442 42.4127 8.64587 42.465 9.01074L42.5434 9.55688L40.1257 9.16699C38.9687 9.07666 37.7189 8.92993 37.1112 8.77966C36.1524 8.54309 36.3064 8.45264 36.2416 7.89331C36.1927 7.47156 36.1707 7.03088 35.7904 6.85876C35.471 6.7124 34.8218 6.2533 34.6368 5.89832C34.4517 5.54114 34.0517 5.1521 33.9487 5.1521C33.8456 5.1521 32.9558 6.39612 32.4876 7.07129C31.3277 8.74402 31.1807 8.97681 28.9774 10.2058C27.4645 11.05 26.5465 11.2545 25.643 12.4331C23.875 14.7388 23.3125 14.6984 24.4212 12.1298C24.9522 10.8994 25.0955 10.8607 22.884 12.5471C21.1639 13.8593 17.922 15.3998 16.0243 15.8069C14.1035 16.22 8.21857 16.8478 7.77787 16.6881C7.374 16.5419 7.41603 16.2432 7.91003 15.7526C8.1982 15.4644 9.32594 15.4247 11.9215 14.91C14.0122 14.4969 16.4753 13.6251 17.1358 13.3799C18.3327 12.9349 20.8056 11.2184 21.8179 10.1292L22.3507 9.55603L21.2002 8.82275C18.6726 7.21204 17.0187 7.49988 14.8174 10.8333C14.0294 12.026 13.372 13.1001 13.0357 13.3002C12.4711 13.6359 12.4168 13.6729 12.1382 13.2985C11.8513 12.9113 11.6772 12.9585 10.711 13.3932C9.468 13.953 8.46717 14.0443 8.18334 13.5394C8.00654 13.2253 7.55409 13.5304 6.19057 14.5146C4.27709 15.8933 0.419433 16.957 0.0674362 16.3916ZM28.2424 8.10669C29.1528 7.48486 29.3603 6.4259 29.0745 6.14233C28.9168 5.9873 27.978 7.34326 27.4171 8.12561C26.8073 8.97595 26.976 8.95312 28.2424 8.10669ZM38.421 5.55957C38.421 5.50366 37.9924 5.53943 37.865 5.45764C37.7376 5.38013 37.212 5.15076 37.212 5.29712C37.212 5.43054 37.7955 6.01709 37.9229 6.01709C38.0503 6.01709 38.421 5.6156 38.421 5.55957Z" fill-rule="nonzero" fill="#FFFFFF"/>
	<defs/>
</svg>
