<svg width="30.000000" height="30.000000" viewBox="0 0 30 30" fill="none" xmlns="http://www.w3.org/2000/svg" xmlns:xlink="http://www.w3.org/1999/xlink">
	<desc>
			Created with Pixso.
	</desc>
	<g clip-path="url(#clip2_14)">
		<path id="path" d="M15 0C6.71536 0 0 6.71536 0 15C0 23.2846 6.71536 30 15 30C23.2846 30 30 23.2846 30 15C30 6.71536 23.2846 0 15 0ZM15 27.6562C8.00995 27.6562 2.34375 21.9901 2.34375 15C2.34375 8.00995 8.00995 2.34375 15 2.34375C21.9901 2.34375 27.6562 8.00995 27.6562 15C27.6562 21.9901 21.9901 27.6562 15 27.6562Z" fill-rule="evenodd" fill="#FEC400"/>
		<path id="path" d="M19.1675 22.4982C19.5016 22.4991 22.5 20.2817 22.5 19.9988C22.5 19.7159 19.1446 17.602 18.8544 17.602C18.5641 17.602 17.59 18.7702 17.3273 18.9002C17.0636 19.0302 15.423 18.9835 13.5947 17.1552C11.7654 15.3278 11.1411 13.223 11.1411 12.8925C11.1411 12.562 12.6663 11.5412 12.7085 11.3013C12.7506 11.0614 10.6979 7.5 10.3647 7.5C10.0315 7.5 7.5 10.5762 7.5 10.8325C7.5 11.0889 7.73163 14.3866 11.9073 18.5614C16.0831 22.7362 18.8333 22.4964 19.1675 22.4982Z" fill-rule="evenodd" fill="#FEC400"/>
	</g>
	<defs>
		<clipPath id="clip2_14">
			<rect id="telephone-svgrepo-com.svg" width="30.000000" height="30.000000" fill="white"/>
		</clipPath>
	</defs>
</svg>
