<svg width="40.000000" height="40.000000" viewBox="0 0 40 40" fill="none" xmlns="http://www.w3.org/2000/svg" xmlns:xlink="http://www.w3.org/1999/xlink">
	<desc>
			Created with Pixso.
	</desc>
	<g clip-path="url(#clip9_471)">
		<path id="path" d="M6.32498 1.57495C6.29059 1.58118 6.25623 1.59058 6.22498 1.59985C5.85309 1.68433 5.59061 2.01868 5.59998 2.3999L5.59998 9.59985L12.8 9.59985C13.0875 9.60303 13.3562 9.453 13.5031 9.203C13.6469 8.953 13.6469 8.64673 13.5031 8.39673C13.3562 8.14673 13.0875 7.99683 12.8 7.99988L8.24997 7.99988C11.2812 5.0343 15.4218 3.19995 20 3.19995C29.2875 3.19995 36.8 10.7124 36.8 19.9999C36.8 29.2874 29.2875 36.7999 20 36.7999C10.7125 36.7999 3.19998 29.2874 3.19998 19.9999C3.19998 17.2218 3.88434 14.6062 5.07498 12.2999L3.64996 11.575C2.34372 14.0999 1.59998 16.9656 1.59998 19.9999C1.59998 30.1531 9.84686 38.3999 20 38.3999C30.1531 38.3999 38.4 30.1531 38.4 19.9999C38.4 9.8468 30.1531 1.59985 20 1.59985C15.0187 1.59985 10.5125 3.60303 7.19998 6.82495L7.19998 2.3999C7.20935 2.1687 7.1156 1.94678 6.94998 1.79053C6.78122 1.6311 6.5531 1.55298 6.32498 1.57495ZM20 3.99988C19.5594 3.99988 19.2 4.35925 19.2 4.79993C19.2 5.24048 19.5594 5.59985 20 5.59985C20.4406 5.59985 20.8 5.24048 20.8 4.79993C20.8 4.35925 20.4406 3.99988 20 3.99988ZM27.6 6.0249C27.1594 6.0249 26.8 6.38428 26.8 6.82495C26.8 7.2655 27.1594 7.62488 27.6 7.62488C28.0406 7.62488 28.4 7.2655 28.4 6.82495C28.4 6.38428 28.0406 6.0249 27.6 6.0249ZM33.175 11.5999C32.7343 11.5999 32.375 11.9592 32.375 12.3999C32.375 12.8406 32.7343 13.2 33.175 13.2C33.6156 13.2 33.975 12.8406 33.975 12.3999C33.975 11.9592 33.6156 11.5999 33.175 11.5999ZM14.7 13.5249C12.4812 13.5249 10.9 14.9718 10.9 17.0499L10.9 17.075L12.55 17.075L12.55 17.0499C12.55 15.8468 13.3812 15.0499 14.625 15.0499C15.7875 15.0499 16.675 15.8186 16.675 16.8499C16.675 17.678 16.3094 18.2781 14.8 19.8499L11 23.7999L11 25.075L18.6 25.075L18.6 23.4999L13.425 23.4999L13.425 23.3749L15.95 20.825C17.8406 18.9124 18.4 17.9436 18.4 16.7499C18.4 14.8905 16.8406 13.5249 14.7 13.5249ZM25.275 13.7999C23.2656 16.8093 21.5844 19.4312 20.575 21.2749L20.575 22.8999L26.075 22.8999L26.075 25.075L27.75 25.075L27.75 22.8999L29.325 22.8999L29.325 21.325L27.75 21.325L27.75 13.7999L25.275 13.7999ZM26 15.3499L26.1 15.3499L26.1 21.3749L22.25 21.3749L22.25 21.2499C23.5781 18.9436 24.8843 16.9656 26 15.3499ZM4.79999 19.2C4.35934 19.2 3.99997 19.5593 3.99997 19.9999C3.99997 20.4406 4.35934 20.7999 4.79999 20.7999C5.2406 20.7999 5.59998 20.4406 5.59998 19.9999C5.59998 19.5593 5.2406 19.2 4.79999 19.2ZM35.2 19.2C34.7593 19.2 34.4 19.5593 34.4 19.9999C34.4 20.4406 34.7593 20.7999 35.2 20.7999C35.6406 20.7999 36 20.4406 36 19.9999C36 19.5593 35.6406 19.2 35.2 19.2ZM6.82498 26.7999C6.38434 26.7999 6.02496 27.1593 6.02496 27.5999C6.02496 28.0405 6.38434 28.3999 6.82498 28.3999C7.26559 28.3999 7.62497 28.0405 7.62497 27.5999C7.62497 27.1593 7.26559 26.7999 6.82498 26.7999ZM33.175 26.7999C32.7343 26.7999 32.375 27.1593 32.375 27.5999C32.375 28.0405 32.7343 28.3999 33.175 28.3999C33.6156 28.3999 33.975 28.0405 33.975 27.5999C33.975 27.1593 33.6156 26.7999 33.175 26.7999ZM12.4 32.3749C11.9594 32.3749 11.6 32.7343 11.6 33.1749C11.6 33.6155 11.9594 33.9749 12.4 33.9749C12.8406 33.9749 13.2 33.6155 13.2 33.1749C13.2 32.7343 12.8406 32.3749 12.4 32.3749ZM27.6 32.3749C27.1594 32.3749 26.8 32.7343 26.8 33.1749C26.8 33.6155 27.1594 33.9749 27.6 33.9749C28.0406 33.9749 28.4 33.6155 28.4 33.1749C28.4 32.7343 28.0406 32.3749 27.6 32.3749ZM20 34.3999C19.5594 34.3999 19.2 34.7593 19.2 35.2C19.2 35.6405 19.5594 35.9999 20 35.9999C20.4406 35.9999 20.8 35.6405 20.8 35.2C20.8 34.7593 20.4406 34.3999 20 34.3999Z" fill-rule="nonzero" fill="#FFFFFF"/>
	</g>
	<defs>
		<clipPath id="clip9_471">
			<rect id="last-24-hours-svgrepo-com.svg" width="40.000000" height="40.000000" fill="white"/>
		</clipPath>
	</defs>
</svg>
